<?xml version="1.0" encoding="UTF-8"?>
<svg id="_レイヤー_2" data-name="レイヤー 2" xmlns="http://www.w3.org/2000/svg" viewBox="0 0 135.1 130">
  <defs>
    <style>
      .cls-1 {
        fill: none;
        stroke: #000;
        stroke-linecap: round;
        stroke-linejoin: round;
        stroke-width: 5px;
      }
    </style>
  </defs>
  <g id="_レイヤー_1-2" data-name="レイヤー 1">
    <line class="cls-1" x1="123.4" y1="7.5" x2="3.4" y2="127.5"/>
    <path class="cls-1" d="M15.4,114.1c-7.1,0-12.9-5.8-12.9-12.9V36c0-7.1,5.8-12.9,12.9-12.9h92.2"/>
    <path class="cls-1" d="M119.7,23c7.1,0,12.9,5.8,12.9,12.9v65.2c0,7.1-5.8,12.9-12.9,12.9H31.2"/>
    <path class="cls-1" d="M33.9,21.4l12.3-13.7c2-2.9,5.4-5.2,9.3-5.2h25.2c3.9,0,7.3,2.3,9.3,5.2l10.2,13.7"/>
    <circle cx="112.8" cy="42.6" r="5"/>
    <path class="cls-1" d="M91.6,54.5c2.7,4.2,4.3,9.1,4.5,14.4.4,15.6-11.8,28.5-27.4,29-6.4.2-12.4-1.8-17.2-5.3"/>
    <path class="cls-1" d="M44.4,86.4c-3.5-4.7-5.5-10.5-5.5-16.8,0-15.6,12.6-28.2,28.2-28.2,5.6,0,10.8,1.6,15.2,4.4"/>
  </g>
</svg>